[Header]
FileType HTR
DataType HTRS
FileVersion 1
NumSegments 64
NumFrames 4
DataFrameRate 30
EulerRotationOrder ZYX
CalibrationUnits mm
RotationUnits Degrees
GlobalAxisofGravity Y
BoneLengthAxis Y
ScaleFactor 1.0
[SegmentNames&Hierarchy]
Hips	GLOBAL
Spine	Hips
Spine1	Spine
Spine2	Spine1
Neck	Spine2
Head	Neck
LeftEye	Head
RightEye	Head
LeftShoulder	Spine2
LeftArm	LeftShoulder
LeftForeArm	LeftArm
LeftHand	LeftForeArm
LeftHandThumb1	LeftHand
LeftHandThumb2	LeftHandThumb1
LeftHandThumb3	LeftHandThumb2
LeftHandThumb4	LeftHandThumb3
LeftHandIndex1	LeftHand
LeftHandIndex2	LeftHandIndex1
LeftHandIndex3	LeftHandIndex2
LeftHandIndex4	LeftHandIndex3
LeftHandMiddle1	LeftHand
LeftHandMiddle2	LeftHandMiddle1
LeftHandMiddle3	LeftHandMiddle2
LeftHandMiddle4	LeftHandMiddle3
LeftHandRing1	LeftHand
LeftHandRing2	LeftHandRing1
LeftHandRing3	LeftHandRing2
LeftHandRing4	LeftHandRing3
LeftHandPinky1	LeftHand
LeftHandPinky2	LeftHandPinky1
LeftHandPinky3	LeftHandPinky2
LeftHandPinky4	LeftHandPinky3
RightShoulder	Spine2
RightArm	RightShoulder
RightForeArm	RightArm
RightHand	RightForeArm
RightHandPinky1	RightHand
RightHandPinky2	RightHandPinky1
RightHandPinky3	RightHandPinky2
RightHandPinky4	RightHandPinky3
RightHandRing1	RightHand
RightHandRing2	RightHandRing1
RightHandRing3	RightHandRing2
RightHandRing4	RightHandRing3
RightHandMiddle1	RightHand
RightHandMiddle2	RightHandMiddle1
RightHandMiddle3	RightHandMiddle2
RightHandMiddle4	RightHandMiddle3
RightHandIndex1	RightHand
RightHandIndex2	RightHandIndex1
RightHandIndex3	RightHandIndex2
RightHandIndex4	RightHandIndex3
RightHandThumb1	RightHand
RightHandThumb2	RightHandThumb1
RightHandThumb3	RightHandThumb2
RightHandThumb4	RightHandThumb3
LeftUpLeg	Hips
LeftLeg	LeftUpLeg
LeftFoot	LeftLeg
LeftToeBase	LeftFoot
RightUpLeg	Hips
RightLeg	RightUpLeg
RightFoot	RightLeg
RightToeBase	RightFoot
[BasePosition]
Hips	0	0	0	0	0	0	1
Spine	0	0	0	0	0	0	1
Spine1	0	0	0	0	0	0	1
Spine2	0	0	0	0	0	0	1
Neck	0	0	0	0	0	0	1
Head	0	0	0	0	0	0	1
LeftEye	0	0	0	0	0	0	1
RightEye	0	0	0	0	0	0	1
LeftShoulder	0	0	0	0	0	0	1
LeftArm	0	0	0	0	0	0	1
LeftForeArm	0	0	0	0	0	0	1
LeftHand	0	0	0	0	0	0	1
LeftHandThumb1	0	0	0	0	0	0	1
LeftHandThumb2	0	0	0	0	0	0	1
LeftHandThumb3	0	0	0	0	0	0	1
LeftHandThumb4	0	0	0	0	0	0	1
LeftHandIndex1	0	0	0	0	0	0	1
LeftHandIndex2	0	0	0	0	0	0	1
LeftHandIndex3	0	0	0	0	0	0	1
LeftHandIndex4	0	0	0	0	0	0	1
LeftHandMiddle1	0	0	0	0	0	0	1
LeftHandMiddle2	0	0	0	0	0	0	1
LeftHandMiddle3	0	0	0	0	0	0	1
LeftHandMiddle4	0	0	0	0	0	0	1
LeftHandRing1	0	0	0	0	0	0	1
LeftHandRing2	0	0	0	0	0	0	1
LeftHandRing3	0	0	0	0	0	0	1
LeftHandRing4	0	0	0	0	0	0	1
LeftHandPinky1	0	0	0	0	0	0	1
LeftHandPinky2	0	0	0	0	0	0	1
LeftHandPinky3	0	0	0	0	0	0	1
LeftHandPinky4	0	0	0	0	0	0	1
RightShoulder	0	0	0	0	0	0	1
RightArm	0	0	0	0	0	0	1
RightForeArm	0	0	0	0	0	0	1
RightHand	0	0	0	0	0	0	1
RightHandPinky1	0	0	0	0	0	0	1
RightHandPinky2	0	0	0	0	0	0	1
RightHandPinky3	0	0	0	0	0	0	1
RightHandPinky4	0	0	0	0	0	0	1
RightHandRing1	0	0	0	0	0	0	1
RightHandRing2	0	0	0	0	0	0	1
RightHandRing3	0	0	0	0	0	0	1
RightHandRing4	0	0	0	0	0	0	1
RightHandMiddle1	0	0	0	0	0	0	1
RightHandMiddle2	0	0	0	0	0	0	1
RightHandMiddle3	0	0	0	0	0	0	1
RightHandMiddle4	0	0	0	0	0	0	1
RightHandIndex1	0	0	0	0	0	0	1
RightHandIndex2	0	0	0	0	0	0	1
RightHandIndex3	0	0	0	0	0	0	1
RightHandIndex4	0	0	0	0	0	0	1
RightHandThumb1	0	0	0	0	0	0	1
RightHandThumb2	0	0	0	0	0	0	1
RightHandThumb3	0	0	0	0	0	0	1
RightHandThumb4	0	0	0	0	0	0	1
LeftUpLeg	0	0	0	0	0	0	1
LeftLeg	0	0	0	0	0	0	1
LeftFoot	0	0	0	0	0	0	1
LeftToeBase	0	0	0	0	0	0	1
RightUpLeg	0	0	0	0	0	0	1
RightLeg	0	0	0	0	0	0	1
RightFoot	0	0	0	0	0	0	1
RightToeBase	0	0	0	0	0	0	1
[Hips]
314	370.5022888	1008.773071	-435.9984131	-6.209336281	-36.42411041	-361.1288757	1.0
315	386.6547241	1007.773743	-421.4165649	-6.703611851	-40.66905594	-360.058136	1.0
316	398.742218	1008.645264	-411.9229736	-8.762933731	-43.97325897	-357.4437256	1.0
317	405.1263123	1008.812256	-408.6952209	-13.10077763	-45.42564011	-352.9855652	1.0
[Spine]
314	0	101.8159943	1.315000057	19.17976952	-16.09338188	-6.375346184	1.0
315	0	101.8159943	1.315000057	19.01616669	-16.77015495	-7.136176109	1.0
316	0	101.8159943	1.315000057	19.290308	-16.2075634	-11.41416073	1.0
317	0	101.8159943	1.315000057	20.8181591	-14.65340805	-19.42510414	1.0
[Spine1]
314	0	100.8349991	-10.00800037	-1.174508929	-2.07608223	-4.195415974	1.0
315	0	100.8349991	-10.00800037	-1.547181487	-2.17005229	-4.562432289	1.0
316	0	100.8349991	-10.00800037	-1.528752089	-2.214813232	-3.716784716	1.0
317	0	100.8349991	-10.00800037	-1.437411189	-2.246634483	-2.134640455	1.0
[Spine2]
314	0	91	-13.73399925	-1.270115018	-2.235979557	-4.08074522	1.0
315	0	91	-13.73399925	-1.654237628	-2.347641468	-4.431574821	1.0
316	0	91	-13.73399925	-1.597496986	-2.367778301	-3.588976383	1.0
317	0	91	-13.73399925	-1.429014802	-2.36147356	-2.01297617	1.0
[Neck]
314	0	166.7169952	-25.16200066	-3.504181147	6.390024185	-2.686523914	1.0
315	0	166.7169952	-25.16200066	-4.51408577	7.119324207	-3.719578743	1.0
316	0	166.7169952	-25.16200066	-5.506204128	7.582430363	-4.187260151	1.0
317	0	166.7169952	-25.16200066	-6.037828445	7.699691296	-4.020271301	1.0
[Head]
314	0	96.17900085	16.84999847	1.137886167	28.80699921	-2.062214136	1.0
315	0	96.17900085	16.84999847	-0.4616560638	31.46213341	-2.397422552	1.0
316	0	96.17900085	16.84999847	-0.6980615258	33.4613533	-2.492138147	1.0
317	0	96.17900085	16.84999847	-0.391307205	34.23335648	-1.882410169	1.0
[LeftEye]
314	30.6760006	64.09500122	92.83599854	0	0	0	1.0
315	30.6760006	64.09500122	92.83599854	0	0	0	1.0
316	30.6760006	64.09500122	92.83599854	0	0	0	1.0
317	30.6760006	64.09500122	92.83599854	0	0	0	1.0
[RightEye]
314	-30.6760006	64.09500122	92.83499908	0	0	0	1.0
315	-30.6760006	64.09500122	92.83499908	0	0	0	1.0
316	-30.6760006	64.09500122	92.83499908	0	0	0	1.0
317	-30.6760006	64.09500122	92.83499908	0	0	0	1.0
[LeftShoulder]
314	45.70400238	109.4599991	-26.28000069	2.114900112	-2.801335812	-27.51535988	1.0
315	45.70400238	109.4599991	-26.28000069	2.307011127	-2.78430891	-30.65476608	1.0
316	45.70400238	109.4599991	-26.28000069	2.483238459	-3.114768267	-31.50151443	1.0
317	45.70400238	109.4599991	-26.28000069	2.517506361	-3.653776884	-29.08927345	1.0
[LeftArm]
314	105.923996	-5.24600029	-22.32099915	3.073080063	-3.018873692	-7.970656395	1.0
315	105.923996	-5.24600029	-22.32099915	2.619795799	-8.051408768	-1.453503728	1.0
316	105.923996	-5.24600029	-22.32099915	1.610112906	-14.41623783	0.9328238964	1.0
317	105.923996	-5.24600029	-22.32099915	1.716862082	-21.75402069	-0.4546306431	1.0
[LeftForeArm]
314	278.414978	-0.0009999999311	0	1.85628403e-06	-66.86164856	-0.0002405803243	1.0
315	278.414978	-0.0009999999311	0	-3.41212467e-06	-66.22289276	-0.0002091374918	1.0
316	278.414978	-0.0009999999311	0	1.100020654e-05	-62.67922211	-0.0002201886819	1.0
317	278.414978	-0.0009999999311	0	-8.794237147e-06	-59.13937759	-0.0002140671277	1.0
[LeftHand]
314	283.2879944	0	0	33.57230377	16.05371857	20.89100838	1.0
315	283.2879944	0	0	32.59560776	14.84375095	20.54137993	1.0
316	283.2879944	0	0	32.46505737	13.70291901	20.75646973	1.0
317	283.2879944	0	0	32.5727005	12.82151699	20.87231064	1.0
[LeftHandThumb1]
314	24.6609993	-15.75	26.8239994	4.179681301	4.847236633	1.460144043	1.0
315	24.6609993	-15.75	26.8239994	3.586515427	4.625770569	1.691562653	1.0
316	24.6609993	-15.75	26.8239994	3.246542692	4.57060194	1.872929692	1.0
317	24.6609993	-15.75	26.8239994	3.105421782	4.685736656	2.020855904	1.0
[LeftHandThumb2]
314	32.29800034	-18.64699936	18.64699936	1.211429	-0.1870597303	-1.054781556	1.0
315	32.29800034	-18.64699936	18.64699936	1.211431861	-0.1870895177	-1.054784298	1.0
316	32.29800034	-18.64699936	18.64699936	1.211420536	-0.1871986836	-1.054784417	1.0
317	32.29800034	-18.64699936	18.64699936	1.211399078	-0.1873651594	-1.054786444	1.0
[LeftHandThumb3]
314	26.52600098	-15.31499958	15.31499958	-2.818334341	-1.974672079	3.231063128	1.0
315	26.52600098	-15.31499958	15.31499958	-2.846768856	-2.017295599	3.241623878	1.0
316	26.52600098	-15.31499958	15.31499958	-2.892836809	-2.092472315	3.250832081	1.0
317	26.52600098	-15.31499958	15.31499958	-2.95277977	-2.192671537	3.259829998	1.0
[LeftHandThumb4]
314	19.54599953	-11.28499985	11.28499985	0	0	0	1.0
315	19.54599953	-11.28499985	11.28499985	0	0	0	1.0
316	19.54599953	-11.28499985	11.28499985	0	0	0	1.0
317	19.54599953	-11.28499985	11.28499985	0	0	0	1.0
[LeftHandIndex1]
314	91.09299469	-5.170999527	22.60099792	-0.4224427044	-4.500066757	-21.30024719	1.0
315	91.09299469	-5.170999527	22.60099792	-0.3521193266	-5.112595081	-19.790205	1.0
316	91.09299469	-5.170999527	22.60099792	-0.2952972949	-5.657570362	-18.51477432	1.0
317	91.09299469	-5.170999527	22.60099792	-0.2489462942	-6.085925102	-17.40028381	1.0
[LeftHandIndex2]
314	36.76399994	0	0	-1.132922534e-05	0.008717943914	-0.0725562349	1.0
315	36.76399994	0	0	-2.763765406e-05	0.02062724531	-0.1716567129	1.0
316	36.76399994	0	0	-3.453154568e-05	0.02179370075	-0.1813116521	1.0
317	36.76399994	0	0	-1.335468369e-05	0.01488806494	-0.1238469332	1.0
[LeftHandIndex3]
314	28.83100128	0	0	-0.1006339565	1.173032641	-9.806388855	1.0
315	28.83100128	0	0	-0.09918895364	1.164648414	-9.735584259	1.0
316	28.83100128	0	0	-0.09749604017	1.154762149	-9.652010918	1.0
317	28.83100128	0	0	-0.09568278491	1.144033313	-9.561542511	1.0
[LeftHandIndex4]
314	23.92700005	0	0	0	0	0	1.0
315	23.92700005	0	0	0	0	0	1.0
316	23.92700005	0	0	0	0	0	1.0
317	23.92700005	0	0	0	0	0	1.0
[LeftHandMiddle1]
314	95.33399963	0	0	-0.6564132571	4.688378334	-25.29415321	1.0
315	95.33399963	0	0	-0.6025359035	4.36066103	-24.20677567	1.0
316	95.33399963	0	0	-0.5602887869	4.082073689	-23.32199478	1.0
317	95.33399963	0	0	-0.5245733857	3.866768599	-22.55156708	1.0
[LeftHandMiddle2]
314	36.98199844	0	0	-0.02443201281	0.5797590017	-4.828192711	1.0
315	36.98199844	0	0	-0.02168385126	0.5461252928	-4.547523975	1.0
316	36.98199844	0	0	-0.01917453669	0.5135873556	-4.276063919	1.0
317	36.98199844	0	0	-0.01669102721	0.4792886376	-3.990039349	1.0
[LeftHandMiddle3]
314	29.50900078	0	0	-0.1080616415	1.215247512	-10.16302776	1.0
315	29.50900078	0	0	-0.1112299711	1.232776999	-10.3113575	1.0
316	29.50900078	0	0	-0.1125410497	1.239936471	-10.37180614	1.0
317	29.50900078	0	0	-0.112009123	1.237080455	-10.34769535	1.0
[LeftHandMiddle4]
314	28.3390007	0	0	0	0	0	1.0
315	28.3390007	0	0	0	0	0	1.0
316	28.3390007	0	0	0	0	0	1.0
317	28.3390007	0	0	0	0	0	1.0
[LeftHandRing1]
314	91.04499817	-0.4390000105	-18.65100098	-0.9809321761	13.89577484	-32.43630219	1.0
315	91.04499817	-0.4390000105	-18.65100098	-0.9267300367	13.62593174	-31.54326057	1.0
316	91.04499817	-0.4390000105	-18.65100098	-0.8865761161	13.41786098	-30.86630058	1.0
317	91.04499817	-0.4390000105	-18.65100098	-0.8516388535	13.27170467	-30.27837372	1.0
[LeftHandRing2]
314	31.54000092	0	0	-0.08467368782	1.076822281	-8.994778633	1.0
315	31.54000092	0	0	-0.07852420956	1.037085891	-8.660110474	1.0
316	31.54000092	0	0	-0.07337648422	1.00271225	-8.370973587	1.0
317	31.54000092	0	0	-0.06818775088	0.9670196176	-8.070902824	1.0
[LeftHandRing3]
314	29.37700081	0	0	-0.09338391572	1.130299449	-9.445681572	1.0
315	29.37700081	0	0	-0.0967734158	1.150511742	-9.616313934	1.0
316	29.37700081	0	0	-0.09883186966	1.162572742	-9.71804142	1.0
317	29.37700081	0	0	-0.09950943291	1.166525364	-9.751383781	1.0
[LeftHandRing4]
314	26.47500038	0	0	0	0	0	1.0
315	26.47500038	0	0	0	0	0	1.0
316	26.47500038	0	0	0	0	0	1.0
317	26.47500038	0	0	0	0	0	1.0
[LeftHandPinky1]
314	80.77799988	-4.887000084	-38.06099701	-1.371952057	30.07894135	-43.70154572	1.0
315	80.77799988	-4.887000084	-38.06099701	-1.293523788	29.87705231	-42.77174759	1.0
316	80.77799988	-4.887000084	-38.06099701	-1.239343047	29.75194168	-42.1282692	1.0
317	80.77799988	-4.887000084	-38.06099701	-1.190991759	29.68459892	-41.57220078	1.0
[LeftHandPinky2]
314	36	0	0	0.4821773171	-3.13337779	-7.902954102	1.0
315	36	0	0	0.4680469334	-3.166354895	-7.646152973	1.0
316	36	0	0	0.4552337825	-3.195929766	-7.415385723	1.0
317	36	0	0	0.4406309128	-3.229439735	-7.153783321	1.0
[LeftHandPinky3]
314	21.14200211	0	0	-0.1119871959	1.23665297	-10.34413052	1.0
315	21.14200211	0	0	-0.1315163821	1.33970654	-11.21704388	1.0
316	21.14200211	0	0	-0.1449171603	1.405339122	-11.7745676	1.0
317	21.14200211	0	0	-0.1512136608	1.435257912	-12.02897549	1.0
[LeftHandPinky4]
314	19.75699997	0	0	0	0	0	1.0
315	19.75699997	0	0	0	0	0	1.0
316	19.75699997	0	0	0	0	0	1.0
317	19.75699997	0	0	0	0	0	1.0
[RightShoulder]
314	-45.70000076	109.4620056	-26.28000069	-0.3015291393	-5.387393951	8.283488274	1.0
315	-45.70000076	109.4620056	-26.28000069	-0.1583293825	-4.793057919	4.616837978	1.0
316	-45.70000076	109.4620056	-26.28000069	-0.1405287534	-5.204900265	-0.2415567935	1.0
317	-45.70000076	109.4620056	-26.28000069	-0.1153789088	-6.278431416	-4.663631439	1.0
[RightArm]
314	-105.9280014	-5.248000145	-22.32099915	17.28470039	-29.96197891	39.44441605	1.0
315	-105.9280014	-5.248000145	-22.32099915	11.9193964	-32.15554047	34.358078	1.0
316	-105.9280014	-5.248000145	-22.32099915	5.907831192	-30.85638809	32.25045395	1.0
317	-105.9280014	-5.248000145	-22.32099915	2.960660458	-28.58538628	31.16531563	1.0
[RightForeArm]
314	-278.414978	0	0	3.784806268e-06	28.27231789	4.113522209e-06	1.0
315	-278.414978	0	0	-1.32898424e-06	28.29722977	4.581041537e-07	1.0
316	-278.414978	0	0	-8.074559446e-06	25.71673584	-7.401989023e-06	1.0
317	-278.414978	0	0	-1.422745868e-06	22.9347477	-3.568845841e-06	1.0
[RightHand]
314	-283.2879944	0	0.0009999999311	-6.978378773	-15.88478661	-8.762270927	1.0
315	-283.2879944	0	0.0009999999311	-7.283539295	-14.64605045	-9.47868824	1.0
316	-283.2879944	0	0.0009999999311	-7.613875866	-13.57133102	-10.49406242	1.0
317	-283.2879944	0	0.0009999999311	-8.559277534	-13.05709457	-11.14728928	1.0
[RightHandPinky1]
314	-80.76699829	-4.885000229	-38.06000137	-0.5241641402	-20.74028206	28.05313492	1.0
315	-80.76699829	-4.885000229	-38.06000137	-0.4149745405	-21.02151489	26.46055794	1.0
316	-80.76699829	-4.885000229	-38.06000137	-0.3181186616	-21.06110573	24.84919167	1.0
317	-80.76699829	-4.885000229	-38.06000137	-0.2265544981	-20.8845005	23.08790779	1.0
[RightHandPinky2]
314	-36	0	0.0009999999311	-0.4644426405	-2.501780033	21.10296249	1.0
315	-36	0	0.0009999999311	-0.4211413264	-2.383191824	20.06202507	1.0
316	-36	0	0.0009999999311	-0.396495074	-2.314011574	19.45631027	1.0
317	-36	0	0.0009999999311	-0.3724438548	-2.244666815	18.85090065	1.0
[RightHandPinky3]
314	-21.14200211	0	0	-0.005386239383	0.2759605646	-2.273738861	1.0
315	-21.14200211	0	0	-0.008994229138	0.354916662	-2.924813986	1.0
316	-21.14200211	0	0	-0.01017087698	0.375998497	-3.098768234	1.0
317	-21.14200211	0	0	-0.008757499047	0.3493616879	-2.879113436	1.0
[RightHandPinky4]
314	-19.75699997	0	0	0	0	0	1.0
315	-19.75699997	0	0	0	0	0	1.0
316	-19.75699997	0	0	0	0	0	1.0
317	-19.75699997	0	0	0	0	0	1.0
[RightHandRing1]
314	-91.03599548	-0.4390000105	-18.65100098	-0.07833839953	-9.628246307	11.81766129	1.0
315	-91.03599548	-0.4390000105	-18.65100098	-0.04626231268	-9.996714592	10.85052776	1.0
316	-91.03599548	-0.4390000105	-18.65100098	-0.02200645022	-10.17548656	9.992240906	1.0
317	-91.03599548	-0.4390000105	-18.65100098	-0.005921203643	-10.20635033	9.315742493	1.0
[RightHandRing2]
314	-31.54000092	0	0	-0.001246164436	-0.1425802857	1.174475193	1.0
315	-31.54000092	0	0	-0.0002051444753	-0.06226948276	0.5129906535	1.0
316	-31.54000092	0	0	-8.469256863e-05	-0.03429840505	0.2826578319	1.0
317	-31.54000092	0	0	-0.0001495050383	-0.04744407535	0.390832901	1.0
[RightHandRing3]
314	-29.37700081	0	0	0.2182840109	0.2095374763	-1.727223277	1.0
315	-29.37700081	0	0	0.3910663724	0.2742090821	-2.259484529	1.0
316	-29.37700081	0	0	0.4013764262	0.2969375253	-2.446651459	1.0
317	-29.37700081	0	0	0.2950449288	0.2850382924	-2.348645449	1.0
[RightHandRing4]
314	-26.47500038	0	0	0	0	0	1.0
315	-26.47500038	0	0	0	0	0	1.0
316	-26.47500038	0	0	0	0	0	1.0
317	-26.47500038	0	0	0	0	0	1.0
[RightHandMiddle1]
314	-95.32500458	0	0	-0.002346889116	-0.8899040222	1.612773299	1.0
315	-95.32500458	0	0	-0.000538522203	-1.50533092	1.491086006	1.0
316	-95.32500458	0	0	0.000569257827	-1.93143189	1.574226141	1.0
317	-95.32500458	0	0	0.0005083129508	-2.200372219	1.850069165	1.0
[RightHandMiddle2]
314	-36.98199844	0	0	-5.598328698e-07	1.314587053e-06	3.905120593e-06	1.0
315	-36.98199844	0	0	-1.204168825e-06	2.827476692e-06	8.401395462e-06	1.0
316	-36.98199844	0	0	9.939233893e-16	-1.987846699e-16	-7.951386796e-16	1.0
317	-36.98199844	0	0	1.092639224e-07	4.85799756e-09	-5.650171602e-07	1.0
[RightHandMiddle3]
314	-29.50900078	0	0	-0.07383645326	0.2774752975	-2.303354263	1.0
315	-29.50900078	0	0	0.09345541149	0.305403322	-2.533340216	1.0
316	-29.50900078	0	0	0.1283129752	0.3193365037	-2.648147345	1.0
317	-29.50900078	0	0	0.0645205155	0.3211675286	-2.663360834	1.0
[RightHandMiddle4]
314	-28.3390007	0	0.0009999999311	0	0	0	1.0
315	-28.3390007	0	0.0009999999311	0	0	0	1.0
316	-28.3390007	0	0.0009999999311	0	0	0	1.0
317	-28.3390007	0	0.0009999999311	0	0	0	1.0
[RightHandIndex1]
314	-91.08300018	-5.167999744	22.60099792	0.02530818805	7.063724041	-4.300839901	1.0
315	-91.08300018	-5.167999744	22.60099792	0.01986526512	6.050214767	-3.531823158	1.0
316	-91.08300018	-5.167999744	22.60099792	0.02004428767	5.270897388	-2.424166441	1.0
317	-91.08300018	-5.167999744	22.60099792	0.02064040117	4.696509838	-1.084255576	1.0
[RightHandIndex2]
314	-36.76399994	0	0	-1.108206675e-06	-0.01004385483	0.08275029808	1.0
315	-36.76399994	0	0	-0.0001794604759	-0.04646868259	0.3827572465	1.0
316	-36.76399994	0	0	-0.0006751099136	-0.09694825858	0.7985784411	1.0
317	-36.76399994	0	0	-0.0006271430175	-0.0944981128	0.7786142826	1.0
[RightHandIndex3]
314	-28.83100128	0	0	-0.008404553868	0.3417149782	-2.816031694	1.0
315	-28.83100128	0	0	-0.009548820555	0.3643431664	-3.002616405	1.0
316	-28.83100128	0	0	-0.01080237981	0.3874832988	-3.193527699	1.0
317	-28.83100128	0	0	-0.0120536238	0.4092542827	-3.373216629	1.0
[RightHandIndex4]
314	-23.92700005	0	0	0	0	0	1.0
315	-23.92700005	0	0	0	0	0	1.0
316	-23.92700005	0	0	0	0	0	1.0
317	-23.92700005	0	0	0	0	0	1.0
[RightHandThumb1]
314	-24.64799881	-15.72700024	26.82600021	5.679526329	-12.83708763	-11.21686268	1.0
315	-24.64799881	-15.72700024	26.82600021	5.717972755	-12.93808556	-11.36008358	1.0
316	-24.64799881	-15.72700024	26.82600021	5.658622265	-13.0202055	-11.60865498	1.0
317	-24.64799881	-15.72700024	26.82600021	5.520943165	-13.08140469	-11.92842579	1.0
[RightHandThumb2]
314	-32.29800034	-18.64699936	18.64699936	2.06027627	0.3369358182	1.680866718	1.0
315	-32.29800034	-18.64699936	18.64699936	2.060275555	0.3369264305	1.680870533	1.0
316	-32.29800034	-18.64699936	18.64699936	2.060275793	0.3369344175	1.680874348	1.0
317	-32.29800034	-18.64699936	18.64699936	2.060277462	0.3369298577	1.680875778	1.0
[RightHandThumb3]
314	-26.52600098	-15.31399918	15.31399918	-5.015014648	5.913949966	-3.378127337	1.0
315	-26.52600098	-15.31399918	15.31399918	-5.098444462	6.040565968	-3.410892963	1.0
316	-26.52600098	-15.31399918	15.31399918	-5.17753458	6.160326004	-3.44199276	1.0
317	-26.52600098	-15.31399918	15.31399918	-5.254611015	6.276722908	-3.472265005	1.0
[RightHandThumb4]
314	-19.54599953	-11.28499985	11.28499985	0	0	0	1.0
315	-19.54599953	-11.28499985	11.28499985	0	0	0	1.0
316	-19.54599953	-11.28499985	11.28499985	0	0	0	1.0
317	-19.54599953	-11.28499985	11.28499985	0	0	0	1.0
[LeftUpLeg]
314	82.07800293	-67.51699829	-15.99599934	-7.781950951	13.59192562	7.92501688	1.0
315	82.07800293	-67.51699829	-15.99599934	-3.849929094	12.97333717	4.73816824	1.0
316	82.07800293	-67.51699829	-15.99599934	-2.323601961	8.464529037	1.675383329	1.0
317	82.07800293	-67.51699829	-15.99599934	-1.376292348	8.318492889	-1.19609952	1.0
[LeftLeg]
314	0	-443.7049866	2.845999956	37.05341339	7.333082199	-2.475942612	1.0
315	0	-443.7049866	2.845999956	31.12390518	10.0825758	-0.9686616063	1.0
316	0	-443.7049866	2.845999956	27.98049164	12.01170158	-3.320975542	1.0
317	0	-443.7049866	2.845999956	27.952631	10.03512669	-5.822396755	1.0
[LeftFoot]
314	0	-444.2789917	-29.8219986	-6.607112885	2.753569841	-0.4183112085	1.0
315	0	-444.2789917	-29.8219986	-15.70482349	4.988902569	0.2707667947	1.0
316	0	-444.2789917	-29.8219986	-15.11074638	12.5229578	-0.3125394583	1.0
317	0	-444.2789917	-29.8219986	-11.84148026	16.50049591	-0.1278753132	1.0
[LeftToeBase]
314	0	-87.28699493	107.1060028	-15.24392891	-0.1768834442	-0.5856019855	1.0
315	0	-87.28699493	107.1060028	-5.662187576	0.01661466435	0.05613948405	1.0
316	0	-87.28699493	107.1060028	-5.851257801	-8.261241646e-07	1.580865501e-07	1.0
317	0	-87.28699493	107.1060028	-9.582780838	-0.08149144053	-0.2929750085	1.0
[RightUpLeg]
314	-82.07800293	-67.51699829	-15.99599934	-9.601086617	3.704010963	-1.299182296	1.0
315	-82.07800293	-67.51699829	-15.99599934	-11.46189499	-1.800141215	-1.193424582	1.0
316	-82.07800293	-67.51699829	-15.99599934	-12.58761406	-5.326236725	-0.6730288863	1.0
317	-82.07800293	-67.51699829	-15.99599934	-12.80172539	-0.3702827394	-2.868669748	1.0
[RightLeg]
314	0	-443.7049866	2.861999989	40.80639648	-9.33374691	-4.410554886	1.0
315	0	-443.7049866	2.861999989	38.72552872	-7.864933014	-6.486924171	1.0
316	0	-443.7049866	2.861999989	34.01276779	-6.98235321	-8.611141205	1.0
317	0	-443.7049866	2.861999989	34.00378799	-6.839104176	-8.864851952	1.0
[RightFoot]
314	0	-444.2770081	-29.83799934	-11.71131897	-7.738986015	14.58211231	1.0
315	0	-444.2770081	-29.83799934	-16.15922165	-4.003608227	14.43371964	1.0
316	0	-444.2770081	-29.83799934	-18.90132141	3.798975229	8.859508514	1.0
317	0	-444.2770081	-29.83799934	-18.88417244	3.648541689	3.791098833	1.0
[RightToeBase]
314	0	-87.28699493	107.1060028	-4.754628181	-0.1929461658	-5.012952805	1.0
315	0	-87.28699493	107.1060028	2.979597092	0.2625744343	-3.145083904	1.0
316	0	-87.28699493	107.1060028	6.265137672	-1.477928345e-05	-2.848863005e-06	1.0
317	0	-87.28699493	107.1060028	7.057177067	-0.004119310528	0.06067144498	1.0
[EndOfFile]
